<?xml version="1.0" encoding="iso-8859-1"?>
<!-- Generator: Adobe Illustrator 19.0.0, SVG Export Plug-In . SVG Version: 6.00 Build 0)  -->
<svg version="1.1" id="Capa_1" xmlns="http://www.w3.org/2000/svg" xmlns:xlink="http://www.w3.org/1999/xlink" x="0px" y="0px"
	 viewBox="0 0 512 512" style="enable-background:new 0 0 512 512;" xml:space="preserve">
<g>
	<g>
		<g>
			<path d="M256,0C114.615,0,0,114.615,0,256s114.615,256,256,256s256-114.615,256-256S397.385,0,256,0z M256,480
				C132.288,480,32,379.712,32,256S132.288,32,256,32s224,100.288,224,224S379.712,480,256,480z"/>
			<path d="M416,144H96c-8.837,0-16,7.163-16,16v48c0,26.51,21.49,48,48,48h64c26.51,0,48-21.49,48-48v-32h32v32
				c0,26.51,21.49,48,48,48h64c26.51,0,48-21.49,48-48v-48C432,151.163,424.837,144,416,144z"/>
			<path d="M304,352c-17.673,0-32-14.327-32-32h-32c0,17.673-14.327,32-32,32s-32-14.327-32-32h-32
				c0.227,35.345,29.064,63.815,64.409,63.588c18.225-0.117,35.536-7.999,47.591-21.668c23.379,26.51,63.821,29.049,90.332,5.671
				C360.001,355.536,367.883,338.225,368,320h-32C336,337.673,321.673,352,304,352z"/>
		</g>
	</g>
</g>
<g>
</g>
<g>
</g>
<g>
</g>
<g>
</g>
<g>
</g>
<g>
</g>
<g>
</g>
<g>
</g>
<g>
</g>
<g>
</g>
<g>
</g>
<g>
</g>
<g>
</g>
<g>
</g>
<g>
</g>
</svg>
